<?xml version="1.0" encoding="UTF-8" standalone="no"?>
<!-- Created with Inkscape (http://www.inkscape.org/) -->

<svg
   xmlns:dc="http://purl.org/dc/elements/1.1/"
   xmlns:cc="http://creativecommons.org/ns#"
   xmlns:rdf="http://www.w3.org/1999/02/22-rdf-syntax-ns#"
   xmlns:svg="http://www.w3.org/2000/svg"
   xmlns="http://www.w3.org/2000/svg"
   xmlns:sodipodi="http://sodipodi.sourceforge.net/DTD/sodipodi-0.dtd"
   xmlns:inkscape="http://www.inkscape.org/namespaces/inkscape"
   version="1.1"
   id="svg2"
   xml:space="preserve"
   width="723.54541"
   height="623.26477"
   viewBox="0 0 723.54541 623.26477"
   sodipodi:docname="chem_kit.svg"
   inkscape:version="0.92.5 (2060ec1f9f, 2020-04-08)"
   inkscape:export-filename="/home/yann/Cloud/Projets/MetWork/chem_kit/chem_kit.png"
   inkscape:export-xdpi="339.52811"
   inkscape:export-ydpi="339.52811"><metadata
     id="metadata8"><rdf:RDF><cc:Work
         rdf:about=""><dc:format>image/svg+xml</dc:format><dc:type
           rdf:resource="http://purl.org/dc/dcmitype/StillImage" /><dc:title></dc:title></cc:Work></rdf:RDF></metadata><defs
     id="defs6"><clipPath
       clipPathUnits="userSpaceOnUse"
       id="clipPath20"><path
         d="M 0,512 H 512 V 0 H 0 Z"
         id="path18"
         inkscape:connector-curvature="0" /></clipPath></defs><sodipodi:namedview
     pagecolor="#ffffff"
     bordercolor="#666666"
     borderopacity="1"
     objecttolerance="10"
     gridtolerance="10"
     guidetolerance="10"
     inkscape:pageopacity="0"
     inkscape:pageshadow="2"
     inkscape:window-width="1920"
     inkscape:window-height="1136"
     id="namedview4"
     showgrid="false"
     inkscape:zoom="0.48889803"
     inkscape:cx="26.313487"
     inkscape:cy="-382.17596"
     inkscape:window-x="0"
     inkscape:window-y="0"
     inkscape:window-maximized="1"
     inkscape:current-layer="layer3"
     fit-margin-top="5"
     fit-margin-right="5"
     fit-margin-left="5"
     fit-margin-bottom="5" /><g
     inkscape:groupmode="layer"
     id="layer3"
     inkscape:label="poignée"
     transform="translate(20.159236,-36.497233)"><path
       id="path1339-9"
       style="display:inline;fill:#ffffff;fill-opacity:1;stroke:#bd4d31;stroke-width:21;stroke-linecap:butt;stroke-linejoin:miter;stroke-miterlimit:4;stroke-dasharray:none;stroke-opacity:1"
       d="M 483.68263,224.76856 C 485.06783,144.29411 417.7892,96.33093 325.02576,96.33093 c -110.81061,0 -163.46749,36.61647 -163.46749,127.3133 l -45.6834,0.7595 c 0,-103.99203 47.47301,-173.894004 203.27784,-172.382549 172.53468,0 210.01935,70.267369 208.25564,172.732329 z"
       inkscape:connector-curvature="0"
       sodipodi:nodetypes="csccccc" /></g><g
     id="g10"
     inkscape:groupmode="layer"
     inkscape:label="valise"
     transform="matrix(1.3333333,0,0,-1.3333333,20.159236,646.16944)"
     style="display:inline"><path
       id="path2"
       d="m 34.94718,321.42451 h 442.52588 a 38.401482,38.401482 0 0 0 38.40148,-38.40149 V 67.2451 A 38.401482,38.401482 0 0 0 477.47306,28.84362 H 34.94718 A 38.401482,38.401482 0 0 0 -3.454302,67.2451 v 215.77792 a 38.401482,38.401482 0 0 0 38.401482,38.40149"
       inkscape:connector-curvature="0"
       style="fill:#ffffff;fill-opacity:1;stroke:#bd4d31;stroke-width:15.83025074;stroke-miterlimit:4;stroke-dasharray:none;stroke-opacity:1" /></g><g
     inkscape:groupmode="layer"
     id="layer1"
     inkscape:label="chimie"
     style="display:inline"
     transform="translate(20.159236,-36.497233)"><g
       style="display:inline;fill:#ffffff;fill-opacity:1;stroke:#bd4d31;stroke-opacity:1"
       id="g38"
       transform="matrix(1.3333333,0,0,-1.3333333,415.21612,369.26175)"><path
         d="M 0,0 V 23.143 H -57.333 V 0 c -31.583,-11.662 -54.104,-42.032 -54.104,-77.665 0,-45.713 37.058,-82.771 82.77,-82.771 45.713,0 82.771,37.058 82.771,82.771 C 54.104,-42.032 31.583,-11.662 0,0 Z"
         style="fill:#ffffff;fill-opacity:1;stroke:#bd4d31;stroke-width:8;stroke-linecap:butt;stroke-linejoin:miter;stroke-miterlimit:10;stroke-dasharray:none;stroke-opacity:1"
         id="path40"
         inkscape:connector-curvature="0" /></g><g
       style="display:inline;fill:#ffffff;fill-opacity:1;stroke:#bd4d31;stroke-opacity:1"
       id="g54"
       transform="matrix(1.3333333,0,0,-1.3333333,422.16012,338.40495)"><path
         d="m 0,0 h -67.75 c -2.75,0 -5,2.25 -5,5 v 7.11 c 0,2.75 2.25,5 5,5 H 0 c 2.75,0 5,-2.25 5,-5 V 5 C 5,2.25 2.75,0 0,0 Z"
         style="fill:#ffffff;fill-opacity:1;stroke:#bd4d31;stroke-width:8;stroke-linecap:butt;stroke-linejoin:miter;stroke-miterlimit:10;stroke-dasharray:none;stroke-opacity:1"
         id="path56"
         inkscape:connector-curvature="0" /></g><g
       style="display:inline;fill:#bd4d31;fill-opacity:1;stroke:none"
       id="g70"
       transform="matrix(1.3333333,0,0,-1.3333333,287.01373,441.77735)"><path
         d="m 0,0 c -2.813,-7.693 -4.348,-16.001 -4.348,-24.667 0,-39.673 32.161,-71.833 71.833,-71.833 39.673,0 71.834,32.16 71.834,71.833 0,8.666 -1.536,16.974 -4.349,24.667 z"
         style="fill:#bd4d31;fill-opacity:1;stroke:none;stroke-width:4;stroke-linecap:round;stroke-linejoin:round;stroke-miterlimit:10;stroke-dasharray:none;stroke-opacity:1"
         id="path72"
         inkscape:connector-curvature="0" /></g><g
       style="display:inline;fill:#ffffff;fill-opacity:1;stroke:#bd4d31;stroke-opacity:1"
       id="g134"
       transform="matrix(1.3333333,0,0,-1.3333333,249.53519,588.40881)"><path
         d="M 0,0 V 0 C -17.12,0 -31.127,14.008 -31.127,31.128 V 186.043 H 31.127 V 31.128 C 31.127,14.008 17.12,0 0,0 Z"
         style="fill:#ffffff;fill-opacity:1;stroke:#bd4d31;stroke-width:8;stroke-linecap:butt;stroke-linejoin:miter;stroke-miterlimit:10;stroke-dasharray:none;stroke-opacity:1"
         id="path136"
         inkscape:connector-curvature="0" /></g><g
       style="display:inline;fill:#bd4d31;fill-opacity:1;stroke:none"
       id="g150"
       transform="matrix(1.3333333,0,0,-1.3333333,249.53519,573.33334)"><path
         d="m 0,0 v 0 c -11.104,0 -20.188,9.085 -20.188,20.188 v 99.987 H 20.188 V 20.188 C 20.188,9.085 11.104,0 0,0 Z"
         style="fill:#bd4d31;fill-opacity:1;stroke:none;stroke-width:4;stroke-linecap:round;stroke-linejoin:round;stroke-miterlimit:10;stroke-dasharray:none;stroke-opacity:1"
         id="path152"
         inkscape:connector-curvature="0" /></g><g
       style="display:inline;fill:#ffffff;fill-opacity:1;stroke:#bd4d31;stroke-opacity:1"
       id="g166"
       transform="matrix(1.3333333,0,0,-1.3333333,294.42386,341.69855)"><path
         d="m 0,0 h -67.333 c -2.75,0 -5,2.25 -5,5 v 8.94 c 0,2.75 2.25,5 5,5 L 0,18.94 c 2.75,0 5,-2.25 5,-5 V 5 C 5,2.25 2.75,0 0,0 Z"
         style="fill:#ffffff;fill-opacity:1;stroke:#bd4d31;stroke-width:8;stroke-linecap:butt;stroke-linejoin:miter;stroke-miterlimit:10;stroke-dasharray:none;stroke-opacity:1"
         id="path168"
         inkscape:connector-curvature="0" /></g></g></svg>